<svg
          class="mb-4"
          width="206"
          height="41"
          viewBox="0 0 206 41"
          fill="none"
          xmlns="http://www.w3.org/2000/svg"
        >
          <g id="logo-fake">
            <path
              id="Bitsplit"
              fill-rule="evenodd"
              clip-rule="evenodd"
              d="M13.3029 32.2918C14.7473 32.2918 16.0256 32.0899 17.1378 31.6859C18.25 31.282 19.1888 30.7266 19.9544 30.0198C20.7199 29.3129 21.2976 28.4762 21.6876 27.5096C22.0776 26.5431 22.2726 25.4972 22.2726 24.372V23.8527C22.2726 22.1216 21.7887 20.7295 20.821 19.6764C19.8532 18.6233 18.6327 17.8948 17.1594 17.4909V16.7119C18.6327 16.3079 19.8532 15.5866 20.821 14.548C21.7887 13.5093 22.2726 12.1244 22.2726 10.3933V9.87398C22.2726 8.74876 22.0776 7.70288 21.6876 6.73635C21.2976 5.76981 20.7199 4.94032 19.9544 4.24788C19.1888 3.55543 18.25 3.00725 17.1378 2.60332C16.0256 2.1994 14.7473 1.99744 13.3029 1.99744H0V7.45043H2.85991V26.8388H0V32.2918H13.3029ZM12.7396 14.3749H8.57971V7.45043H12.7396C13.9529 7.45043 14.9351 7.70288 15.6861 8.20779C16.4372 8.7127 16.8128 9.57104 16.8128 10.7828V11.0425C16.8128 12.2543 16.4372 13.1126 15.6861 13.6175C14.9351 14.1224 13.9529 14.3749 12.7396 14.3749ZM8.57971 26.8388H12.7396C13.9529 26.8388 14.9351 26.5792 15.6861 26.0598C16.4372 25.5405 16.8128 24.6749 16.8128 23.4632V23.2035C16.8128 21.9917 16.4372 21.1262 15.6861 20.6068C14.9351 20.0875 13.9529 19.8278 12.7396 19.8278H8.57971V26.8388ZM47.2751 32.2918V27.0985H41.0353V10.8261H28.8157V16.0194H35.5755V27.0985H28.2957V32.2918H47.2751ZM72.6243 27.0985V32.2918H63.5246C62.5424 32.2918 61.7408 31.9745 61.1197 31.3397C60.4986 30.705 60.1881 29.8971 60.1881 28.9162V16.0194H53.8183V10.8261H60.1881V1.99744H65.6479V10.8261H73.4043V16.0194H65.6479V25.8002C65.6479 26.6657 66.0379 27.0985 66.8178 27.0985H72.6243ZM91.3437 32.8977C94.1747 32.8977 96.3702 32.263 97.9302 30.9935C99.4901 29.724 100.27 28.0218 100.27 25.8867V25.6271C100.27 23.694 99.5768 22.1865 98.1901 21.1045C96.8035 20.0226 95.0125 19.3662 92.817 19.1354C90.9104 18.9334 89.596 18.681 88.8738 18.378C88.1516 18.0751 87.7905 17.5774 87.7905 16.885C87.7905 16.3945 88.0216 15.9833 88.4838 15.6516C88.946 15.3198 89.6393 15.1539 90.5637 15.1539C91.5748 15.1539 92.3981 15.3775 93.0336 15.8247C93.6692 16.2719 94.1169 16.885 94.3769 17.664L99.3168 15.6732C99.0857 15.0673 98.7535 14.4398 98.3201 13.7906C97.8868 13.1414 97.3235 12.55 96.6302 12.0162C95.9369 11.4825 95.0919 11.0497 94.0953 10.7179C93.0986 10.3861 91.9215 10.2202 90.5637 10.2202C89.5238 10.2202 88.5127 10.3645 87.5305 10.653C86.5483 10.9415 85.6817 11.3671 84.9306 11.9297C84.1795 12.4923 83.5728 13.1775 83.1106 13.9854C82.6484 14.7932 82.4173 15.7309 82.4173 16.7984V17.0581C82.4173 19.1066 83.1323 20.6573 84.5623 21.7104C85.9922 22.7635 87.9205 23.3911 90.3471 23.593C91.2426 23.6796 91.9865 23.795 92.5787 23.9392C93.1709 24.0835 93.6403 24.2638 93.9869 24.4802C94.3336 24.6966 94.5719 24.9274 94.7019 25.1726C94.8319 25.4179 94.8969 25.6848 94.8969 25.9733C94.8969 26.4638 94.6441 26.9182 94.1386 27.3365C93.6331 27.7549 92.7014 27.9641 91.3437 27.9641C89.8126 27.9641 88.6788 27.6178 87.9421 26.9254C87.2055 26.233 86.7216 25.4251 86.4905 24.5018L81.464 26.1464C81.6085 26.8965 81.8901 27.6683 82.309 28.4618C82.7279 29.2552 83.3273 29.9765 84.1073 30.6256C84.8872 31.2748 85.8694 31.8158 87.0538 32.2486C88.2382 32.6813 89.6682 32.8977 91.3437 32.8977ZM111.796 29.1758V40.9474H106.337V10.8261H111.796V13.9421H112.576C113.154 12.7592 113.992 11.8431 115.09 11.1939C116.187 10.5448 117.588 10.2202 119.293 10.2202C120.564 10.2202 121.77 10.4654 122.911 10.9559C124.052 11.4464 125.049 12.1605 125.901 13.0982C126.753 14.0359 127.432 15.1827 127.938 16.5387C128.443 17.8948 128.696 19.4384 128.696 21.1695V21.9485C128.696 23.7084 128.45 25.2664 127.959 26.6225C127.468 27.9785 126.804 29.1253 125.966 30.063C125.128 31.0007 124.139 31.7076 122.998 32.1836C121.857 32.6597 120.622 32.8977 119.293 32.8977C118.311 32.8977 117.458 32.7967 116.736 32.5948C116.014 32.3928 115.386 32.1187 114.851 31.7725C114.317 31.4263 113.869 31.0296 113.508 30.5824C113.147 30.1352 112.836 29.6663 112.576 29.1758H111.796ZM117.516 27.7044C115.812 27.7044 114.432 27.1634 113.378 26.0815C112.324 24.9995 111.796 23.5786 111.796 21.8186V21.2993C111.796 19.5393 112.324 18.1184 113.378 17.0364C114.432 15.9545 115.812 15.4135 117.516 15.4135C119.221 15.4135 120.6 15.9401 121.654 16.9932C122.709 18.0462 123.236 19.4816 123.236 21.2993V21.8186C123.236 23.6363 122.709 25.0717 121.654 26.1248C120.6 27.1778 119.221 27.7044 117.516 27.7044ZM153.872 27.0985V32.2918H133.852V27.0985H141.392V7.19076H134.112V1.99744H146.852V27.0985H153.872ZM179.871 32.2918V27.0985H173.631V10.8261H161.411V16.0194H168.171V27.0985H160.891V32.2918H179.871ZM205.22 27.0985V32.2918H196.12C195.138 32.2918 194.336 31.9745 193.715 31.3397C193.094 30.705 192.784 29.8971 192.784 28.9162V16.0194H186.414V10.8261H192.784V1.99744H198.244V10.8261H206V16.0194H198.244V25.8002C198.244 26.6657 198.634 27.0985 199.414 27.0985H205.22Z"
              fill="black"
            />
            <path
              id="Path"
              fill-rule="evenodd"
              clip-rule="evenodd"
              d="M38 7.98973C38.5333 7.98973 39.0456 7.8846 39.5368 7.67435C40.0281 7.46409 40.4561 7.18375 40.8211 6.83332C41.186 6.4829 41.4737 6.06238 41.6842 5.57179C41.8947 5.08119 42 4.55555 42 3.99487C42 3.43418 41.8947 2.90854 41.6842 2.41794C41.4737 1.92735 41.186 1.50684 40.8211 1.15641C40.4561 0.805982 40.0281 0.52564 39.5368 0.315384C39.0456 0.105128 38.5333 0 38 0C37.4386 0 36.9193 0.105128 36.4421 0.315384C35.9649 0.52564 35.5439 0.805982 35.1789 1.15641C34.814 1.50684 34.5263 1.92735 34.3158 2.41794C34.1053 2.90854 34 3.43418 34 3.99487C34 4.55555 34.1053 5.08119 34.3158 5.57179C34.5263 6.06238 34.814 6.4829 35.1789 6.83332C35.5439 7.18375 35.9649 7.46409 36.4421 7.67435C36.9193 7.8846 37.4386 7.98973 38 7.98973Z"
              fill="#8070E3"
            />
            <path
              id="Path_2"
              fill-rule="evenodd"
              clip-rule="evenodd"
              d="M171 7.98973C171.533 7.98973 172.046 7.8846 172.537 7.67435C173.028 7.46409 173.456 7.18375 173.821 6.83332C174.186 6.4829 174.474 6.06238 174.684 5.57179C174.895 5.08119 175 4.55555 175 3.99487C175 3.43418 174.895 2.90854 174.684 2.41794C174.474 1.92735 174.186 1.50684 173.821 1.15641C173.456 0.805982 173.028 0.52564 172.537 0.315384C172.046 0.105128 171.533 0 171 0C170.439 0 169.919 0.105128 169.442 0.315384C168.965 0.52564 168.544 0.805982 168.179 1.15641C167.814 1.50684 167.526 1.92735 167.316 2.41794C167.105 2.90854 167 3.43418 167 3.99487C167 4.55555 167.105 5.08119 167.316 5.57179C167.526 6.06238 167.814 6.4829 168.179 6.83332C168.544 7.18375 168.965 7.46409 169.442 7.67435C169.919 7.8846 170.439 7.98973 171 7.98973Z"
              fill="#8070E3"
            />
          </g>
        </svg>